# xmcd
#
# Track frame offsets:
#	182
#	19075
#	35915
#	57430
#	75525
#	93100
#	110935
#	124927
#	142160
#	155605
#	174090
#
# Disc length: 2545 seconds
#
# Revision: 4
# Processed by: cddbd v1.5.2PL0 Copyright (c) Steve Scherf et al.
# Submitted via: dBpowerAMP V4.0
#
DISCID=9509ef0b
DTITLE=Billy Joe Royal - The Royal Treatment
DYEAR=1987
DGENRE=Country
TTITLE0=I'll Pin A Note On Your Pillow
TTITLE1=Give'em My Number
TTITLE2=He'll Have To Go
TTITLE3=Look What You've Done To My Heart
TTITLE4=Let It Rain
TTITLE5=Members Only
TTITLE6=It's Who's In Your Heart
TTITLE7=Out Of Sight And On My Mind
TTITLE8=It Keeps Right On A Hurtin'
TTITLE9=She Don't Cry Like She Used To
TTITLE10=A Place For The Heartache
EXTD=
EXTT0=
EXTT1=
EXTT2=
EXTT3=
EXTT4=
EXTT5=
EXTT6=
EXTT7=
EXTT8=
EXTT9=
EXTT10=
PLAYORDER=
